<mxfile host="app.diagrams.net" modified="2024-06-16T15:31:34.590Z" agent="Mozilla/5.0 (Macintosh; Intel Mac OS X 10_15_7) AppleWebKit/537.36 (KHTML, like Gecko) Chrome/125.0.0.0 Safari/537.36" version="24.5.4" etag="nJUPnxoFx0WpZVjEObhi" type="github">
  <diagram name="Page-1" id="koKkgfx4V1DcDY4L06e6">
    <mxGraphModel>
      <root>
        <mxCell id="0" />
        <mxCell id="1" parent="0" />
      </root>
    </mxGraphModel>
  </diagram>
</mxfile>
